<?xml version="1.0" standalone="no"?>
<!DOCTYPE svg PUBLIC "-//W3C//DTD SVG 20010904//EN"
 "http://www.w3.org/TR/2001/REC-SVG-20010904/DTD/svg10.dtd">
<svg version="1.0" xmlns="http://www.w3.org/2000/svg"
 width="256.000000pt" height="256.000000pt" viewBox="0 0 256.000000 256.000000"
 preserveAspectRatio="xMidYMid meet">
<metadata>
Created by potrace 1.14, written by Peter Selinger 2001-2017
</metadata>
<g transform="translate(0.000000,256.000000) scale(0.100000,-0.100000)"
fill="#000000" stroke="none">
<path d="M0 1280 l0 -1280 1280 0 1280 0 0 1280 0 1280 -1280 0 -1280 0 0
-1280z m1530 1131 c439 -99 785 -445 881 -883 138 -629 -265 -1250 -898 -1382
-227 -48 -495 -18 -706 78 -262 119 -491 355 -594 611 -179 445 -83 928 251
1261 183 183 413 297 672 333 96 14 293 4 394 -18z"/>
<path d="M987 1674 c-359 -55 -607 -206 -607 -368 0 -105 78 -195 234 -271
175 -85 392 -126 661 -126 298 0 551 55 721 157 361 216 133 526 -447 609
-131 18 -441 18 -562 -1z m398 -148 c132 -61 186 -217 121 -349 -49 -101 -144
-154 -256 -144 -223 20 -318 287 -158 447 72 73 195 92 293 46z"/>
</g>
</svg>
